<?xml version="1.0" encoding="utf-8" standalone="no"?>
<!DOCTYPE svg PUBLIC "-//W3C//DTD SVG 1.1//EN"
  "http://www.w3.org/Graphics/SVG/1.1/DTD/svg11.dtd">
<svg xmlns:xlink="http://www.w3.org/1999/xlink" width="277.998438pt" height="256.637344pt" viewBox="0 0 277.998438 256.637344" xmlns="http://www.w3.org/2000/svg" version="1.1">
 <metadata>
  <rdf:RDF xmlns:dc="http://purl.org/dc/elements/1.1/" xmlns:cc="http://creativecommons.org/ns#" xmlns:rdf="http://www.w3.org/1999/02/22-rdf-syntax-ns#">
   <cc:Work>
    <dc:type rdf:resource="http://purl.org/dc/dcmitype/StillImage"/>
    <dc:date>2022-09-16T18:20:11.103481</dc:date>
    <dc:format>image/svg+xml</dc:format>
    <dc:creator>
     <cc:Agent>
      <dc:title>Matplotlib v3.5.2, https://matplotlib.org/</dc:title>
     </cc:Agent>
    </dc:creator>
   </cc:Work>
  </rdf:RDF>
 </metadata>
 <defs>
  <style type="text/css">*{stroke-linejoin: round; stroke-linecap: butt}</style>
 </defs>
 <g id="figure_1">
  <g id="patch_1">
   <path d="M 0 256.637344 
L 277.998438 256.637344 
L 277.998438 0 
L 0 0 
z
" style="fill: #ffffff"/>
  </g>
  <g id="axes_1">
   <g id="patch_2">
    <path d="M 36.465625 232.759219 
L 259.665625 232.759219 
L 259.665625 10.999219 
L 36.465625 10.999219 
z
" style="fill: #ffffff"/>
   </g>
   <g id="PathCollection_1">
    <path d="M 90.480025 59.690139 
C 91.042606 59.690139 91.58222 59.466623 91.980025 59.068819 
C 92.37783 58.671014 92.601345 58.131399 92.601345 57.568819 
C 92.601345 57.006238 92.37783 56.466623 91.980025 56.068819 
C 91.58222 55.671014 91.042606 55.447498 90.480025 55.447498 
C 89.917444 55.447498 89.37783 55.671014 88.980025 56.068819 
C 88.58222 56.466623 88.358705 57.006238 88.358705 57.568819 
C 88.358705 58.131399 88.58222 58.671014 88.980025 59.068819 
C 89.37783 59.466623 89.917444 59.690139 90.480025 59.690139 
z
" clip-path="url(#p1d6f48806b)" style="fill: #f77189; stroke: #ffffff; stroke-width: 0.339411"/>
    <path d="M 123.067225 52.150299 
C 123.629806 52.150299 124.16942 51.926783 124.567225 51.528979 
C 124.96503 51.131174 125.188545 50.591559 125.188545 50.028979 
C 125.188545 49.466398 124.96503 48.926783 124.567225 48.528979 
C 124.16942 48.131174 123.629806 47.907658 123.067225 47.907658 
C 122.504644 47.907658 121.96503 48.131174 121.567225 48.528979 
C 121.16942 48.926783 120.945905 49.466398 120.945905 50.028979 
C 120.945905 50.591559 121.16942 51.131174 121.567225 51.528979 
C 121.96503 51.926783 122.504644 52.150299 123.067225 52.150299 
z
" clip-path="url(#p1d6f48806b)" style="fill: #f37a32; stroke: #ffffff; stroke-width: 0.339411"/>
    <path d="M 213.686425 33.965979 
C 214.249006 33.965979 214.78862 33.742463 215.186425 33.344659 
C 215.58423 32.946854 215.807745 32.407239 215.807745 31.844659 
C 215.807745 31.282078 215.58423 30.742463 215.186425 30.344659 
C 214.78862 29.946854 214.249006 29.723338 213.686425 29.723338 
C 213.123844 29.723338 212.58423 29.946854 212.186425 30.344659 
C 211.78862 30.742463 211.565105 31.282078 211.565105 31.844659 
C 211.565105 32.407239 211.78862 32.946854 212.186425 33.344659 
C 212.58423 33.742463 213.123844 33.965979 213.686425 33.965979 
z
" clip-path="url(#p1d6f48806b)" style="fill: #ca9232; stroke: #ffffff; stroke-width: 0.339411"/>
    <path d="M 199.848025 37.735899 
C 200.410606 37.735899 200.95022 37.512383 201.348025 37.114579 
C 201.74583 36.716774 201.969345 36.177159 201.969345 35.614579 
C 201.969345 35.051998 201.74583 34.512383 201.348025 34.114579 
C 200.95022 33.716774 200.410606 33.493258 199.848025 33.493258 
C 199.285444 33.493258 198.74583 33.716774 198.348025 34.114579 
C 197.95022 34.512383 197.726705 35.051998 197.726705 35.614579 
C 197.726705 36.177159 197.95022 36.716774 198.348025 37.114579 
C 198.74583 37.512383 199.285444 37.735899 199.848025 37.735899 
z
" clip-path="url(#p1d6f48806b)" style="fill: #ae9d31; stroke: #ffffff; stroke-width: 0.339411"/>
    <path d="M 148.735225 48.158619 
C 149.297806 48.158619 149.83742 47.935103 150.235225 47.537299 
C 150.63303 47.139494 150.856545 46.599879 150.856545 46.037299 
C 150.856545 45.474718 150.63303 44.935103 150.235225 44.537299 
C 149.83742 44.139494 149.297806 43.915978 148.735225 43.915978 
C 148.172644 43.915978 147.63303 44.139494 147.235225 44.537299 
C 146.83742 44.935103 146.613905 45.474718 146.613905 46.037299 
C 146.613905 46.599879 146.83742 47.139494 147.235225 47.537299 
C 147.63303 47.935103 148.172644 48.158619 148.735225 48.158619 
z
" clip-path="url(#p1d6f48806b)" style="fill: #8ea631; stroke: #ffffff; stroke-width: 0.339411"/>
    <path d="M 134.004025 53.702619 
C 134.566606 53.702619 135.10622 53.479103 135.504025 53.081299 
C 135.90183 52.683494 136.125345 52.143879 136.125345 51.581299 
C 136.125345 51.018718 135.90183 50.479103 135.504025 50.081299 
C 135.10622 49.683494 134.566606 49.459978 134.004025 49.459978 
C 133.441444 49.459978 132.90183 49.683494 132.504025 50.081299 
C 132.10622 50.479103 131.882705 51.018718 131.882705 51.581299 
C 131.882705 52.143879 132.10622 52.683494 132.504025 53.081299 
C 132.90183 53.479103 133.441444 53.702619 134.004025 53.702619 
z
" clip-path="url(#p1d6f48806b)" style="fill: #50b131; stroke: #ffffff; stroke-width: 0.339411"/>
    <path d="M 128.647225 64.568859 
C 129.209806 64.568859 129.74942 64.345343 130.147225 63.947539 
C 130.54503 63.549734 130.768545 63.010119 130.768545 62.447539 
C 130.768545 61.884958 130.54503 61.345343 130.147225 60.947539 
C 129.74942 60.549734 129.209806 60.326218 128.647225 60.326218 
C 128.084644 60.326218 127.54503 60.549734 127.147225 60.947539 
C 126.74942 61.345343 126.525905 61.884958 126.525905 62.447539 
C 126.525905 63.010119 126.74942 63.549734 127.147225 63.947539 
C 127.54503 64.345343 128.084644 64.568859 128.647225 64.568859 
z
" clip-path="url(#p1d6f48806b)" style="fill: #33b07a; stroke: #ffffff; stroke-width: 0.339411"/>
    <path d="M 160.564825 34.631259 
C 161.127406 34.631259 161.66702 34.407743 162.064825 34.009939 
C 162.46263 33.612134 162.686145 33.072519 162.686145 32.509939 
C 162.686145 31.947358 162.46263 31.407743 162.064825 31.009939 
C 161.66702 30.612134 161.127406 30.388618 160.564825 30.388618 
C 160.002244 30.388618 159.46263 30.612134 159.064825 31.009939 
C 158.66702 31.407743 158.443505 31.947358 158.443505 32.509939 
C 158.443505 33.072519 158.66702 33.612134 159.064825 34.009939 
C 159.46263 34.407743 160.002244 34.631259 160.564825 34.631259 
z
" clip-path="url(#p1d6f48806b)" style="fill: #35ae99; stroke: #ffffff; stroke-width: 0.339411"/>
    <path d="M 138.468025 75.656859 
C 139.030606 75.656859 139.57022 75.433343 139.968025 75.035539 
C 140.36583 74.637734 140.589345 74.098119 140.589345 73.535539 
C 140.589345 72.972958 140.36583 72.433343 139.968025 72.035539 
C 139.57022 71.637734 139.030606 71.414218 138.468025 71.414218 
C 137.905444 71.414218 137.36583 71.637734 136.968025 72.035539 
C 136.57022 72.433343 136.346705 72.972958 136.346705 73.535539 
C 136.346705 74.098119 136.57022 74.637734 136.968025 75.035539 
C 137.36583 75.433343 137.905444 75.656859 138.468025 75.656859 
z
" clip-path="url(#p1d6f48806b)" style="fill: #36acae; stroke: #ffffff; stroke-width: 0.339411"/>
    <path d="M 215.918425 33.300699 
C 216.481006 33.300699 217.02062 33.077183 217.418425 32.679379 
C 217.81623 32.281574 218.039745 31.741959 218.039745 31.179379 
C 218.039745 30.616798 217.81623 30.077183 217.418425 29.679379 
C 217.02062 29.281574 216.481006 29.058058 215.918425 29.058058 
C 215.355844 29.058058 214.81623 29.281574 214.418425 29.679379 
C 214.02062 30.077183 213.797105 30.616798 213.797105 31.179379 
C 213.797105 31.741959 214.02062 32.281574 214.418425 32.679379 
C 214.81623 33.077183 215.355844 33.300699 215.918425 33.300699 
z
" clip-path="url(#p1d6f48806b)" style="fill: #38a9c5; stroke: #ffffff; stroke-width: 0.339411"/>
    <path d="M 245.380825 17.112219 
C 245.943406 17.112219 246.48302 16.888703 246.880825 16.490899 
C 247.27863 16.093094 247.502145 15.553479 247.502145 14.990899 
C 247.502145 14.428318 247.27863 13.888703 246.880825 13.490899 
C 246.48302 13.093094 245.943406 12.869578 245.380825 12.869578 
C 244.818244 12.869578 244.27863 13.093094 243.880825 13.490899 
C 243.48302 13.888703 243.259505 14.428318 243.259505 14.990899 
C 243.259505 15.553479 243.48302 16.093094 243.880825 16.490899 
C 244.27863 16.888703 244.818244 17.112219 245.380825 17.112219 
z
" clip-path="url(#p1d6f48806b)" style="fill: #3ba3ec; stroke: #ffffff; stroke-width: 0.339411"/>
    <path d="M 154.761625 20.438619 
C 155.324206 20.438619 155.86382 20.215103 156.261625 19.817299 
C 156.65943 19.419494 156.882945 18.879879 156.882945 18.317299 
C 156.882945 17.754718 156.65943 17.215103 156.261625 16.817299 
C 155.86382 16.419494 155.324206 16.195978 154.761625 16.195978 
C 154.199044 16.195978 153.65943 16.419494 153.261625 16.817299 
C 152.86382 17.215103 152.640305 17.754718 152.640305 18.317299 
C 152.640305 18.879879 152.86382 19.419494 153.261625 19.817299 
C 153.65943 20.215103 154.199044 20.438619 154.761625 20.438619 
z
" clip-path="url(#p1d6f48806b)" style="fill: #9591f4; stroke: #ffffff; stroke-width: 0.339411"/>
    <path d="M 124.852825 19.551579 
C 125.415406 19.551579 125.95502 19.328063 126.352825 18.930259 
C 126.75063 18.532454 126.974145 17.992839 126.974145 17.430259 
C 126.974145 16.867678 126.75063 16.328063 126.352825 15.930259 
C 125.95502 15.532454 125.415406 15.308938 124.852825 15.308938 
C 124.290244 15.308938 123.75063 15.532454 123.352825 15.930259 
C 122.95502 16.328063 122.731505 16.867678 122.731505 17.430259 
C 122.731505 17.992839 122.95502 18.532454 123.352825 18.930259 
C 123.75063 19.328063 124.290244 19.551579 124.852825 19.551579 
z
" clip-path="url(#p1d6f48806b)" style="fill: #cc7af4; stroke: #ffffff; stroke-width: 0.339411"/>
    <path d="M 156.100825 16.446939 
C 156.663406 16.446939 157.20302 16.223423 157.600825 15.825619 
C 157.99863 15.427814 158.222145 14.888199 158.222145 14.325619 
C 158.222145 13.763038 157.99863 13.223423 157.600825 12.825619 
C 157.20302 12.427814 156.663406 12.204298 156.100825 12.204298 
C 155.538244 12.204298 154.99863 12.427814 154.600825 12.825619 
C 154.20302 13.223423 153.979505 13.763038 153.979505 14.325619 
C 153.979505 14.888199 154.20302 15.427814 154.600825 15.825619 
C 154.99863 16.223423 155.538244 16.446939 156.100825 16.446939 
z
" clip-path="url(#p1d6f48806b)" style="fill: #f560e4; stroke: #ffffff; stroke-width: 0.339411"/>
    <path d="M 256.094425 15.559899 
C 256.657006 15.559899 257.19662 15.336383 257.594425 14.938579 
C 257.99223 14.540774 258.215745 14.001159 258.215745 13.438579 
C 258.215745 12.875998 257.99223 12.336383 257.594425 11.938579 
C 257.19662 11.540774 256.657006 11.317258 256.094425 11.317258 
C 255.531844 11.317258 254.99223 11.540774 254.594425 11.938579 
C 254.19662 12.336383 253.973105 12.875998 253.973105 13.438579 
C 253.973105 14.001159 254.19662 14.540774 254.594425 14.938579 
C 254.99223 15.336383 255.531844 15.559899 256.094425 15.559899 
z
" clip-path="url(#p1d6f48806b)" style="fill: #f66ab7; stroke: #ffffff; stroke-width: 0.339411"/>
   </g>
   <g id="matplotlib.axis_1">
    <g id="xtick_1">
     <g id="line2d_1">
      <path d="M 36.465625 232.759219 
L 36.465625 10.999219 
" clip-path="url(#p1d6f48806b)" style="fill: none; stroke: #b0b0b0; stroke-opacity: 0.3; stroke-width: 0.8; stroke-linecap: square"/>
     </g>
     <g id="line2d_2">
      <defs>
       <path id="mfe2f13b9b4" d="M 0 0 
L 0 3.5 
" style="stroke: #000000; stroke-width: 0.8"/>
      </defs>
      <g>
       <use xlink:href="#mfe2f13b9b4" x="36.465625" y="232.759219" style="stroke: #000000; stroke-width: 0.8"/>
      </g>
     </g>
     <g id="text_1">
      <!-- 0.00 -->
      <g transform="translate(25.332813 247.357656)scale(0.1 -0.1)">
       <defs>
        <path id="DejaVuSans-30" d="M 2034 4250 
Q 1547 4250 1301 3770 
Q 1056 3291 1056 2328 
Q 1056 1369 1301 889 
Q 1547 409 2034 409 
Q 2525 409 2770 889 
Q 3016 1369 3016 2328 
Q 3016 3291 2770 3770 
Q 2525 4250 2034 4250 
z
M 2034 4750 
Q 2819 4750 3233 4129 
Q 3647 3509 3647 2328 
Q 3647 1150 3233 529 
Q 2819 -91 2034 -91 
Q 1250 -91 836 529 
Q 422 1150 422 2328 
Q 422 3509 836 4129 
Q 1250 4750 2034 4750 
z
" transform="scale(0.015625)"/>
        <path id="DejaVuSans-2e" d="M 684 794 
L 1344 794 
L 1344 0 
L 684 0 
L 684 794 
z
" transform="scale(0.015625)"/>
       </defs>
       <use xlink:href="#DejaVuSans-30"/>
       <use xlink:href="#DejaVuSans-2e" x="63.623047"/>
       <use xlink:href="#DejaVuSans-30" x="95.410156"/>
       <use xlink:href="#DejaVuSans-30" x="159.033203"/>
      </g>
     </g>
    </g>
    <g id="xtick_2">
     <g id="line2d_3">
      <path d="M 92.265625 232.759219 
L 92.265625 10.999219 
" clip-path="url(#p1d6f48806b)" style="fill: none; stroke: #b0b0b0; stroke-opacity: 0.3; stroke-width: 0.8; stroke-linecap: square"/>
     </g>
     <g id="line2d_4">
      <g>
       <use xlink:href="#mfe2f13b9b4" x="92.265625" y="232.759219" style="stroke: #000000; stroke-width: 0.8"/>
      </g>
     </g>
     <g id="text_2">
      <!-- 0.25 -->
      <g transform="translate(81.132812 247.357656)scale(0.1 -0.1)">
       <defs>
        <path id="DejaVuSans-32" d="M 1228 531 
L 3431 531 
L 3431 0 
L 469 0 
L 469 531 
Q 828 903 1448 1529 
Q 2069 2156 2228 2338 
Q 2531 2678 2651 2914 
Q 2772 3150 2772 3378 
Q 2772 3750 2511 3984 
Q 2250 4219 1831 4219 
Q 1534 4219 1204 4116 
Q 875 4013 500 3803 
L 500 4441 
Q 881 4594 1212 4672 
Q 1544 4750 1819 4750 
Q 2544 4750 2975 4387 
Q 3406 4025 3406 3419 
Q 3406 3131 3298 2873 
Q 3191 2616 2906 2266 
Q 2828 2175 2409 1742 
Q 1991 1309 1228 531 
z
" transform="scale(0.015625)"/>
        <path id="DejaVuSans-35" d="M 691 4666 
L 3169 4666 
L 3169 4134 
L 1269 4134 
L 1269 2991 
Q 1406 3038 1543 3061 
Q 1681 3084 1819 3084 
Q 2600 3084 3056 2656 
Q 3513 2228 3513 1497 
Q 3513 744 3044 326 
Q 2575 -91 1722 -91 
Q 1428 -91 1123 -41 
Q 819 9 494 109 
L 494 744 
Q 775 591 1075 516 
Q 1375 441 1709 441 
Q 2250 441 2565 725 
Q 2881 1009 2881 1497 
Q 2881 1984 2565 2268 
Q 2250 2553 1709 2553 
Q 1456 2553 1204 2497 
Q 953 2441 691 2322 
L 691 4666 
z
" transform="scale(0.015625)"/>
       </defs>
       <use xlink:href="#DejaVuSans-30"/>
       <use xlink:href="#DejaVuSans-2e" x="63.623047"/>
       <use xlink:href="#DejaVuSans-32" x="95.410156"/>
       <use xlink:href="#DejaVuSans-35" x="159.033203"/>
      </g>
     </g>
    </g>
    <g id="xtick_3">
     <g id="line2d_5">
      <path d="M 148.065625 232.759219 
L 148.065625 10.999219 
" clip-path="url(#p1d6f48806b)" style="fill: none; stroke: #b0b0b0; stroke-opacity: 0.3; stroke-width: 0.8; stroke-linecap: square"/>
     </g>
     <g id="line2d_6">
      <g>
       <use xlink:href="#mfe2f13b9b4" x="148.065625" y="232.759219" style="stroke: #000000; stroke-width: 0.8"/>
      </g>
     </g>
     <g id="text_3">
      <!-- 0.50 -->
      <g transform="translate(136.932813 247.357656)scale(0.1 -0.1)">
       <use xlink:href="#DejaVuSans-30"/>
       <use xlink:href="#DejaVuSans-2e" x="63.623047"/>
       <use xlink:href="#DejaVuSans-35" x="95.410156"/>
       <use xlink:href="#DejaVuSans-30" x="159.033203"/>
      </g>
     </g>
    </g>
    <g id="xtick_4">
     <g id="line2d_7">
      <path d="M 203.865625 232.759219 
L 203.865625 10.999219 
" clip-path="url(#p1d6f48806b)" style="fill: none; stroke: #b0b0b0; stroke-opacity: 0.3; stroke-width: 0.8; stroke-linecap: square"/>
     </g>
     <g id="line2d_8">
      <g>
       <use xlink:href="#mfe2f13b9b4" x="203.865625" y="232.759219" style="stroke: #000000; stroke-width: 0.8"/>
      </g>
     </g>
     <g id="text_4">
      <!-- 0.75 -->
      <g transform="translate(192.732812 247.357656)scale(0.1 -0.1)">
       <defs>
        <path id="DejaVuSans-37" d="M 525 4666 
L 3525 4666 
L 3525 4397 
L 1831 0 
L 1172 0 
L 2766 4134 
L 525 4134 
L 525 4666 
z
" transform="scale(0.015625)"/>
       </defs>
       <use xlink:href="#DejaVuSans-30"/>
       <use xlink:href="#DejaVuSans-2e" x="63.623047"/>
       <use xlink:href="#DejaVuSans-37" x="95.410156"/>
       <use xlink:href="#DejaVuSans-35" x="159.033203"/>
      </g>
     </g>
    </g>
    <g id="xtick_5">
     <g id="line2d_9">
      <path d="M 259.665625 232.759219 
L 259.665625 10.999219 
" clip-path="url(#p1d6f48806b)" style="fill: none; stroke: #b0b0b0; stroke-opacity: 0.3; stroke-width: 0.8; stroke-linecap: square"/>
     </g>
     <g id="line2d_10">
      <g>
       <use xlink:href="#mfe2f13b9b4" x="259.665625" y="232.759219" style="stroke: #000000; stroke-width: 0.8"/>
      </g>
     </g>
     <g id="text_5">
      <!-- 1.00 -->
      <g transform="translate(248.532812 247.357656)scale(0.1 -0.1)">
       <defs>
        <path id="DejaVuSans-31" d="M 794 531 
L 1825 531 
L 1825 4091 
L 703 3866 
L 703 4441 
L 1819 4666 
L 2450 4666 
L 2450 531 
L 3481 531 
L 3481 0 
L 794 0 
L 794 531 
z
" transform="scale(0.015625)"/>
       </defs>
       <use xlink:href="#DejaVuSans-31"/>
       <use xlink:href="#DejaVuSans-2e" x="63.623047"/>
       <use xlink:href="#DejaVuSans-30" x="95.410156"/>
       <use xlink:href="#DejaVuSans-30" x="159.033203"/>
      </g>
     </g>
    </g>
    <g id="xtick_6">
     <g id="line2d_11">
      <path d="M 64.365625 232.759219 
L 64.365625 10.999219 
" clip-path="url(#p1d6f48806b)" style="fill: none; stroke: #b0b0b0; stroke-opacity: 0.3; stroke-width: 0.8; stroke-linecap: square"/>
     </g>
     <g id="line2d_12">
      <defs>
       <path id="mf7dbb34347" d="M 0 0 
L 0 2 
" style="stroke: #000000; stroke-width: 0.6"/>
      </defs>
      <g>
       <use xlink:href="#mf7dbb34347" x="64.365625" y="232.759219" style="stroke: #000000; stroke-width: 0.6"/>
      </g>
     </g>
    </g>
    <g id="xtick_7">
     <g id="line2d_13">
      <path d="M 120.165625 232.759219 
L 120.165625 10.999219 
" clip-path="url(#p1d6f48806b)" style="fill: none; stroke: #b0b0b0; stroke-opacity: 0.3; stroke-width: 0.8; stroke-linecap: square"/>
     </g>
     <g id="line2d_14">
      <g>
       <use xlink:href="#mf7dbb34347" x="120.165625" y="232.759219" style="stroke: #000000; stroke-width: 0.6"/>
      </g>
     </g>
    </g>
    <g id="xtick_8">
     <g id="line2d_15">
      <path d="M 175.965625 232.759219 
L 175.965625 10.999219 
" clip-path="url(#p1d6f48806b)" style="fill: none; stroke: #b0b0b0; stroke-opacity: 0.3; stroke-width: 0.8; stroke-linecap: square"/>
     </g>
     <g id="line2d_16">
      <g>
       <use xlink:href="#mf7dbb34347" x="175.965625" y="232.759219" style="stroke: #000000; stroke-width: 0.6"/>
      </g>
     </g>
    </g>
    <g id="xtick_9">
     <g id="line2d_17">
      <path d="M 231.765625 232.759219 
L 231.765625 10.999219 
" clip-path="url(#p1d6f48806b)" style="fill: none; stroke: #b0b0b0; stroke-opacity: 0.3; stroke-width: 0.8; stroke-linecap: square"/>
     </g>
     <g id="line2d_18">
      <g>
       <use xlink:href="#mf7dbb34347" x="231.765625" y="232.759219" style="stroke: #000000; stroke-width: 0.6"/>
      </g>
     </g>
    </g>
   </g>
   <g id="matplotlib.axis_2">
    <g id="ytick_1">
     <g id="line2d_19">
      <path d="M 36.465625 232.759219 
L 259.665625 232.759219 
" clip-path="url(#p1d6f48806b)" style="fill: none; stroke: #b0b0b0; stroke-opacity: 0.3; stroke-width: 0.8; stroke-linecap: square"/>
     </g>
     <g id="line2d_20">
      <defs>
       <path id="m0a0f481f2d" d="M 0 0 
L -3.5 0 
" style="stroke: #000000; stroke-width: 0.8"/>
      </defs>
      <g>
       <use xlink:href="#m0a0f481f2d" x="36.465625" y="232.759219" style="stroke: #000000; stroke-width: 0.8"/>
      </g>
     </g>
     <g id="text_6">
      <!-- 0.00 -->
      <g transform="translate(7.2 236.558438)scale(0.1 -0.1)">
       <use xlink:href="#DejaVuSans-30"/>
       <use xlink:href="#DejaVuSans-2e" x="63.623047"/>
       <use xlink:href="#DejaVuSans-30" x="95.410156"/>
       <use xlink:href="#DejaVuSans-30" x="159.033203"/>
      </g>
     </g>
    </g>
    <g id="ytick_2">
     <g id="line2d_21">
      <path d="M 36.465625 177.319219 
L 259.665625 177.319219 
" clip-path="url(#p1d6f48806b)" style="fill: none; stroke: #b0b0b0; stroke-opacity: 0.3; stroke-width: 0.8; stroke-linecap: square"/>
     </g>
     <g id="line2d_22">
      <g>
       <use xlink:href="#m0a0f481f2d" x="36.465625" y="177.319219" style="stroke: #000000; stroke-width: 0.8"/>
      </g>
     </g>
     <g id="text_7">
      <!-- 0.25 -->
      <g transform="translate(7.2 181.118437)scale(0.1 -0.1)">
       <use xlink:href="#DejaVuSans-30"/>
       <use xlink:href="#DejaVuSans-2e" x="63.623047"/>
       <use xlink:href="#DejaVuSans-32" x="95.410156"/>
       <use xlink:href="#DejaVuSans-35" x="159.033203"/>
      </g>
     </g>
    </g>
    <g id="ytick_3">
     <g id="line2d_23">
      <path d="M 36.465625 121.879219 
L 259.665625 121.879219 
" clip-path="url(#p1d6f48806b)" style="fill: none; stroke: #b0b0b0; stroke-opacity: 0.3; stroke-width: 0.8; stroke-linecap: square"/>
     </g>
     <g id="line2d_24">
      <g>
       <use xlink:href="#m0a0f481f2d" x="36.465625" y="121.879219" style="stroke: #000000; stroke-width: 0.8"/>
      </g>
     </g>
     <g id="text_8">
      <!-- 0.50 -->
      <g transform="translate(7.2 125.678438)scale(0.1 -0.1)">
       <use xlink:href="#DejaVuSans-30"/>
       <use xlink:href="#DejaVuSans-2e" x="63.623047"/>
       <use xlink:href="#DejaVuSans-35" x="95.410156"/>
       <use xlink:href="#DejaVuSans-30" x="159.033203"/>
      </g>
     </g>
    </g>
    <g id="ytick_4">
     <g id="line2d_25">
      <path d="M 36.465625 66.439219 
L 259.665625 66.439219 
" clip-path="url(#p1d6f48806b)" style="fill: none; stroke: #b0b0b0; stroke-opacity: 0.3; stroke-width: 0.8; stroke-linecap: square"/>
     </g>
     <g id="line2d_26">
      <g>
       <use xlink:href="#m0a0f481f2d" x="36.465625" y="66.439219" style="stroke: #000000; stroke-width: 0.8"/>
      </g>
     </g>
     <g id="text_9">
      <!-- 0.75 -->
      <g transform="translate(7.2 70.238438)scale(0.1 -0.1)">
       <use xlink:href="#DejaVuSans-30"/>
       <use xlink:href="#DejaVuSans-2e" x="63.623047"/>
       <use xlink:href="#DejaVuSans-37" x="95.410156"/>
       <use xlink:href="#DejaVuSans-35" x="159.033203"/>
      </g>
     </g>
    </g>
    <g id="ytick_5">
     <g id="line2d_27">
      <path d="M 36.465625 10.999219 
L 259.665625 10.999219 
" clip-path="url(#p1d6f48806b)" style="fill: none; stroke: #b0b0b0; stroke-opacity: 0.3; stroke-width: 0.8; stroke-linecap: square"/>
     </g>
     <g id="line2d_28">
      <g>
       <use xlink:href="#m0a0f481f2d" x="36.465625" y="10.999219" style="stroke: #000000; stroke-width: 0.8"/>
      </g>
     </g>
     <g id="text_10">
      <!-- 1.00 -->
      <g transform="translate(7.2 14.798438)scale(0.1 -0.1)">
       <use xlink:href="#DejaVuSans-31"/>
       <use xlink:href="#DejaVuSans-2e" x="63.623047"/>
       <use xlink:href="#DejaVuSans-30" x="95.410156"/>
       <use xlink:href="#DejaVuSans-30" x="159.033203"/>
      </g>
     </g>
    </g>
    <g id="ytick_6">
     <g id="line2d_29">
      <path d="M 36.465625 205.039219 
L 259.665625 205.039219 
" clip-path="url(#p1d6f48806b)" style="fill: none; stroke: #b0b0b0; stroke-opacity: 0.3; stroke-width: 0.8; stroke-linecap: square"/>
     </g>
     <g id="line2d_30">
      <defs>
       <path id="m9d2de81e39" d="M 0 0 
L -2 0 
" style="stroke: #000000; stroke-width: 0.6"/>
      </defs>
      <g>
       <use xlink:href="#m9d2de81e39" x="36.465625" y="205.039219" style="stroke: #000000; stroke-width: 0.6"/>
      </g>
     </g>
    </g>
    <g id="ytick_7">
     <g id="line2d_31">
      <path d="M 36.465625 149.599219 
L 259.665625 149.599219 
" clip-path="url(#p1d6f48806b)" style="fill: none; stroke: #b0b0b0; stroke-opacity: 0.3; stroke-width: 0.8; stroke-linecap: square"/>
     </g>
     <g id="line2d_32">
      <g>
       <use xlink:href="#m9d2de81e39" x="36.465625" y="149.599219" style="stroke: #000000; stroke-width: 0.6"/>
      </g>
     </g>
    </g>
    <g id="ytick_8">
     <g id="line2d_33">
      <path d="M 36.465625 94.159219 
L 259.665625 94.159219 
" clip-path="url(#p1d6f48806b)" style="fill: none; stroke: #b0b0b0; stroke-opacity: 0.3; stroke-width: 0.8; stroke-linecap: square"/>
     </g>
     <g id="line2d_34">
      <g>
       <use xlink:href="#m9d2de81e39" x="36.465625" y="94.159219" style="stroke: #000000; stroke-width: 0.6"/>
      </g>
     </g>
    </g>
    <g id="ytick_9">
     <g id="line2d_35">
      <path d="M 36.465625 38.719219 
L 259.665625 38.719219 
" clip-path="url(#p1d6f48806b)" style="fill: none; stroke: #b0b0b0; stroke-opacity: 0.3; stroke-width: 0.8; stroke-linecap: square"/>
     </g>
     <g id="line2d_36">
      <g>
       <use xlink:href="#m9d2de81e39" x="36.465625" y="38.719219" style="stroke: #000000; stroke-width: 0.6"/>
      </g>
     </g>
    </g>
   </g>
   <g id="line2d_37">
    <path d="M 36.465625 232.759219 
L 259.665625 10.999219 
" clip-path="url(#p1d6f48806b)" style="fill: none; stroke-dasharray: 3.7,1.6; stroke-dashoffset: 0; stroke: #000000"/>
   </g>
   <g id="patch_3">
    <path d="M 36.465625 232.759219 
L 36.465625 10.999219 
" style="fill: none; stroke: #000000; stroke-width: 0.8; stroke-linejoin: miter; stroke-linecap: square"/>
   </g>
   <g id="patch_4">
    <path d="M 259.665625 232.759219 
L 259.665625 10.999219 
" style="fill: none; stroke: #000000; stroke-width: 0.8; stroke-linejoin: miter; stroke-linecap: square"/>
   </g>
   <g id="patch_5">
    <path d="M 36.465625 232.759219 
L 259.665625 232.759219 
" style="fill: none; stroke: #000000; stroke-width: 0.8; stroke-linejoin: miter; stroke-linecap: square"/>
   </g>
   <g id="patch_6">
    <path d="M 36.465625 10.999219 
L 259.665625 10.999219 
" style="fill: none; stroke: #000000; stroke-width: 0.8; stroke-linejoin: miter; stroke-linecap: square"/>
   </g>
  </g>
 </g>
 <defs>
  <clipPath id="p1d6f48806b">
   <rect x="36.465625" y="10.999219" width="223.2" height="221.76"/>
  </clipPath>
 </defs>
</svg>
