<?xml version="1.0" encoding="utf-8" standalone="no"?>
<!DOCTYPE svg PUBLIC "-//W3C//DTD SVG 1.1//EN"
  "http://www.w3.org/Graphics/SVG/1.1/DTD/svg11.dtd">
<svg xmlns:xlink="http://www.w3.org/1999/xlink" width="260.503125pt" height="252.838125pt" viewBox="0 0 260.503125 252.838125" xmlns="http://www.w3.org/2000/svg" version="1.1">
 <metadata>
  <rdf:RDF xmlns:dc="http://purl.org/dc/elements/1.1/" xmlns:cc="http://creativecommons.org/ns#" xmlns:rdf="http://www.w3.org/1999/02/22-rdf-syntax-ns#">
   <cc:Work>
    <dc:type rdf:resource="http://purl.org/dc/dcmitype/StillImage"/>
    <dc:date>2022-09-16T18:31:25.097243</dc:date>
    <dc:format>image/svg+xml</dc:format>
    <dc:creator>
     <cc:Agent>
      <dc:title>Matplotlib v3.5.2, https://matplotlib.org/</dc:title>
     </cc:Agent>
    </dc:creator>
   </cc:Work>
  </rdf:RDF>
 </metadata>
 <defs>
  <style type="text/css">*{stroke-linejoin: round; stroke-linecap: butt}</style>
 </defs>
 <g id="figure_1">
  <g id="patch_1">
   <path d="M 0 252.838125 
L 260.503125 252.838125 
L 260.503125 0 
L 0 0 
z
" style="fill: #ffffff"/>
  </g>
  <g id="axes_1">
   <g id="patch_2">
    <path d="M 30.103125 228.96 
L 253.303125 228.96 
L 253.303125 7.2 
L 30.103125 7.2 
z
" style="fill: #ffffff"/>
   </g>
   <g id="PathCollection_1">
    <path d="M 61.909125 153.46532 
C 62.471706 153.46532 63.01132 153.241805 63.409125 152.844 
C 63.80693 152.446195 64.030445 151.906581 64.030445 151.344 
C 64.030445 150.781419 63.80693 150.241805 63.409125 149.844 
C 63.01132 149.446195 62.471706 149.22268 61.909125 149.22268 
C 61.346544 149.22268 60.80693 149.446195 60.409125 149.844 
C 60.01132 150.241805 59.787805 150.781419 59.787805 151.344 
C 59.787805 151.906581 60.01132 152.446195 60.409125 152.844 
C 60.80693 153.241805 61.346544 153.46532 61.909125 153.46532 
z
" clip-path="url(#p0bb77fdfe6)" style="fill: #db5f57; stroke: #ffffff; stroke-width: 0.339411"/>
    <path d="M 113.803125 134.61572 
C 114.365706 134.61572 114.90532 134.392205 115.303125 133.9944 
C 115.70093 133.596595 115.924445 133.056981 115.924445 132.4944 
C 115.924445 131.931819 115.70093 131.392205 115.303125 130.9944 
C 114.90532 130.596595 114.365706 130.37308 113.803125 130.37308 
C 113.240544 130.37308 112.70093 130.596595 112.303125 130.9944 
C 111.90532 131.392205 111.681805 131.931819 111.681805 132.4944 
C 111.681805 133.056981 111.90532 133.596595 112.303125 133.9944 
C 112.70093 134.392205 113.240544 134.61572 113.803125 134.61572 
z
" clip-path="url(#p0bb77fdfe6)" style="fill: #db9457; stroke: #ffffff; stroke-width: 0.339411"/>
    <path d="M 146.167125 89.15492 
C 146.729706 89.15492 147.26932 88.931405 147.667125 88.5336 
C 148.06493 88.135795 148.288445 87.596181 148.288445 87.0336 
C 148.288445 86.471019 148.06493 85.931405 147.667125 85.5336 
C 147.26932 85.135795 146.729706 84.91228 146.167125 84.91228 
C 145.604544 84.91228 145.06493 85.135795 144.667125 85.5336 
C 144.26932 85.931405 144.045805 86.471019 144.045805 87.0336 
C 144.045805 87.596181 144.26932 88.135795 144.667125 88.5336 
C 145.06493 88.931405 145.604544 89.15492 146.167125 89.15492 
z
" clip-path="url(#p0bb77fdfe6)" style="fill: #dbc957; stroke: #ffffff; stroke-width: 0.339411"/>
    <path d="M 156.769125 98.57972 
C 157.331706 98.57972 157.87132 98.356205 158.269125 97.9584 
C 158.66693 97.560595 158.890445 97.020981 158.890445 96.4584 
C 158.890445 95.895819 158.66693 95.356205 158.269125 94.9584 
C 157.87132 94.560595 157.331706 94.33708 156.769125 94.33708 
C 156.206544 94.33708 155.66693 94.560595 155.269125 94.9584 
C 154.87132 95.356205 154.647805 95.895819 154.647805 96.4584 
C 154.647805 97.020981 154.87132 97.560595 155.269125 97.9584 
C 155.66693 98.356205 156.206544 98.57972 156.769125 98.57972 
z
" clip-path="url(#p0bb77fdfe6)" style="fill: #b9db57; stroke: #ffffff; stroke-width: 0.339411"/>
    <path d="M 133.891125 124.63652 
C 134.453706 124.63652 134.99332 124.413005 135.391125 124.0152 
C 135.78893 123.617395 136.012445 123.077781 136.012445 122.5152 
C 136.012445 121.952619 135.78893 121.413005 135.391125 121.0152 
C 134.99332 120.617395 134.453706 120.39388 133.891125 120.39388 
C 133.328544 120.39388 132.78893 120.617395 132.391125 121.0152 
C 131.99332 121.413005 131.769805 121.952619 131.769805 122.5152 
C 131.769805 123.077781 131.99332 123.617395 132.391125 124.0152 
C 132.78893 124.413005 133.328544 124.63652 133.891125 124.63652 
z
" clip-path="url(#p0bb77fdfe6)" style="fill: #84db57; stroke: #ffffff; stroke-width: 0.339411"/>
    <path d="M 117.151125 138.49652 
C 117.713706 138.49652 118.25332 138.273005 118.651125 137.8752 
C 119.04893 137.477395 119.272445 136.937781 119.272445 136.3752 
C 119.272445 135.812619 119.04893 135.273005 118.651125 134.8752 
C 118.25332 134.477395 117.713706 134.25388 117.151125 134.25388 
C 116.588544 134.25388 116.04893 134.477395 115.651125 134.8752 
C 115.25332 135.273005 115.029805 135.812619 115.029805 136.3752 
C 115.029805 136.937781 115.25332 137.477395 115.651125 137.8752 
C 116.04893 138.273005 116.588544 138.49652 117.151125 138.49652 
z
" clip-path="url(#p0bb77fdfe6)" style="fill: #57db5f; stroke: #ffffff; stroke-width: 0.339411"/>
    <path d="M 84.229125 165.66212 
C 84.791706 165.66212 85.33132 165.438605 85.729125 165.0408 
C 86.12693 164.642995 86.350445 164.103381 86.350445 163.5408 
C 86.350445 162.978219 86.12693 162.438605 85.729125 162.0408 
C 85.33132 161.642995 84.791706 161.41948 84.229125 161.41948 
C 83.666544 161.41948 83.12693 161.642995 82.729125 162.0408 
C 82.33132 162.438605 82.107805 162.978219 82.107805 163.5408 
C 82.107805 164.103381 82.33132 164.642995 82.729125 165.0408 
C 83.12693 165.438605 83.666544 165.66212 84.229125 165.66212 
z
" clip-path="url(#p0bb77fdfe6)" style="fill: #57db94; stroke: #ffffff; stroke-width: 0.339411"/>
    <path d="M 157.885125 90.81812 
C 158.447706 90.81812 158.98732 90.594605 159.385125 90.1968 
C 159.78293 89.798995 160.006445 89.259381 160.006445 88.6968 
C 160.006445 88.134219 159.78293 87.594605 159.385125 87.1968 
C 158.98732 86.798995 158.447706 86.57548 157.885125 86.57548 
C 157.322544 86.57548 156.78293 86.798995 156.385125 87.1968 
C 155.98732 87.594605 155.763805 88.134219 155.763805 88.6968 
C 155.763805 89.259381 155.98732 89.798995 156.385125 90.1968 
C 156.78293 90.594605 157.322544 90.81812 157.885125 90.81812 
z
" clip-path="url(#p0bb77fdfe6)" style="fill: #57dbc9; stroke: #ffffff; stroke-width: 0.339411"/>
    <path d="M 65.815125 193.38212 
C 66.377706 193.38212 66.91732 193.158605 67.315125 192.7608 
C 67.71293 192.362995 67.936445 191.823381 67.936445 191.2608 
C 67.936445 190.698219 67.71293 190.158605 67.315125 189.7608 
C 66.91732 189.362995 66.377706 189.13948 65.815125 189.13948 
C 65.252544 189.13948 64.71293 189.362995 64.315125 189.7608 
C 63.91732 190.158605 63.693805 190.698219 63.693805 191.2608 
C 63.693805 191.823381 63.91732 192.362995 64.315125 192.7608 
C 64.71293 193.158605 65.252544 193.38212 65.815125 193.38212 
z
" clip-path="url(#p0bb77fdfe6)" style="fill: #57b9db; stroke: #ffffff; stroke-width: 0.339411"/>
    <path d="M 163.465125 87.49172 
C 164.027706 87.49172 164.56732 87.268205 164.965125 86.8704 
C 165.36293 86.472595 165.586445 85.932981 165.586445 85.3704 
C 165.586445 84.807819 165.36293 84.268205 164.965125 83.8704 
C 164.56732 83.472595 164.027706 83.24908 163.465125 83.24908 
C 162.902544 83.24908 162.36293 83.472595 161.965125 83.8704 
C 161.56732 84.268205 161.343805 84.807819 161.343805 85.3704 
C 161.343805 85.932981 161.56732 86.472595 161.965125 86.8704 
C 162.36293 87.268205 162.902544 87.49172 163.465125 87.49172 
z
" clip-path="url(#p0bb77fdfe6)" style="fill: #5784db; stroke: #ffffff; stroke-width: 0.339411"/>
    <path d="M 215.359125 47.02052 
C 215.921706 47.02052 216.46132 46.797005 216.859125 46.3992 
C 217.25693 46.001395 217.480445 45.461781 217.480445 44.8992 
C 217.480445 44.336619 217.25693 43.797005 216.859125 43.3992 
C 216.46132 43.001395 215.921706 42.77788 215.359125 42.77788 
C 214.796544 42.77788 214.25693 43.001395 213.859125 43.3992 
C 213.46132 43.797005 213.237805 44.336619 213.237805 44.8992 
C 213.237805 45.461781 213.46132 46.001395 213.859125 46.3992 
C 214.25693 46.797005 214.796544 47.02052 215.359125 47.02052 
z
" clip-path="url(#p0bb77fdfe6)" style="fill: #5f57db; stroke: #ffffff; stroke-width: 0.339411"/>
    <path d="M 150.631125 55.33652 
C 151.193706 55.33652 151.73332 55.113005 152.131125 54.7152 
C 152.52893 54.317395 152.752445 53.777781 152.752445 53.2152 
C 152.752445 52.652619 152.52893 52.113005 152.131125 51.7152 
C 151.73332 51.317395 151.193706 51.09388 150.631125 51.09388 
C 150.068544 51.09388 149.52893 51.317395 149.131125 51.7152 
C 148.73332 52.113005 148.509805 52.652619 148.509805 53.2152 
C 148.509805 53.777781 148.73332 54.317395 149.131125 54.7152 
C 149.52893 55.113005 150.068544 55.33652 150.631125 55.33652 
z
" clip-path="url(#p0bb77fdfe6)" style="fill: #9457db; stroke: #ffffff; stroke-width: 0.339411"/>
    <path d="M 203.083125 53.11892 
C 203.645706 53.11892 204.18532 52.895405 204.583125 52.4976 
C 204.98093 52.099795 205.204445 51.560181 205.204445 50.9976 
C 205.204445 50.435019 204.98093 49.895405 204.583125 49.4976 
C 204.18532 49.099795 203.645706 48.87628 203.083125 48.87628 
C 202.520544 48.87628 201.98093 49.099795 201.583125 49.4976 
C 201.18532 49.895405 200.961805 50.435019 200.961805 50.9976 
C 200.961805 51.560181 201.18532 52.099795 201.583125 52.4976 
C 201.98093 52.895405 202.520544 53.11892 203.083125 53.11892 
z
" clip-path="url(#p0bb77fdfe6)" style="fill: #c957db; stroke: #ffffff; stroke-width: 0.339411"/>
    <path d="M 214.243125 45.35732 
C 214.805706 45.35732 215.34532 45.133805 215.743125 44.736 
C 216.14093 44.338195 216.364445 43.798581 216.364445 43.236 
C 216.364445 42.673419 216.14093 42.133805 215.743125 41.736 
C 215.34532 41.338195 214.805706 41.11468 214.243125 41.11468 
C 213.680544 41.11468 213.14093 41.338195 212.743125 41.736 
C 212.34532 42.133805 212.121805 42.673419 212.121805 43.236 
C 212.121805 43.798581 212.34532 44.338195 212.743125 44.736 
C 213.14093 45.133805 213.680544 45.35732 214.243125 45.35732 
z
" clip-path="url(#p0bb77fdfe6)" style="fill: #db57b9; stroke: #ffffff; stroke-width: 0.339411"/>
    <path d="M 218.149125 43.13972 
C 218.711706 43.13972 219.25132 42.916205 219.649125 42.5184 
C 220.04693 42.120595 220.270445 41.580981 220.270445 41.0184 
C 220.270445 40.455819 220.04693 39.916205 219.649125 39.5184 
C 219.25132 39.120595 218.711706 38.89708 218.149125 38.89708 
C 217.586544 38.89708 217.04693 39.120595 216.649125 39.5184 
C 216.25132 39.916205 216.027805 40.455819 216.027805 41.0184 
C 216.027805 41.580981 216.25132 42.120595 216.649125 42.5184 
C 217.04693 42.916205 217.586544 43.13972 218.149125 43.13972 
z
" clip-path="url(#p0bb77fdfe6)" style="fill: #db5784; stroke: #ffffff; stroke-width: 0.339411"/>
   </g>
   <g id="matplotlib.axis_1">
    <g id="xtick_1">
     <g id="line2d_1">
      <path d="M 58.003125 228.96 
L 58.003125 7.2 
" clip-path="url(#p0bb77fdfe6)" style="fill: none; stroke: #b0b0b0; stroke-opacity: 0.3; stroke-width: 0.8; stroke-linecap: square"/>
     </g>
     <g id="line2d_2">
      <defs>
       <path id="mb85b55b5bc" d="M 0 0 
L 0 3.5 
" style="stroke: #000000; stroke-width: 0.8"/>
      </defs>
      <g>
       <use xlink:href="#mb85b55b5bc" x="58.003125" y="228.96" style="stroke: #000000; stroke-width: 0.8"/>
      </g>
     </g>
     <g id="text_1">
      <!-- 0.7 -->
      <g transform="translate(50.051562 243.558437)scale(0.1 -0.1)">
       <defs>
        <path id="DejaVuSans-30" d="M 2034 4250 
Q 1547 4250 1301 3770 
Q 1056 3291 1056 2328 
Q 1056 1369 1301 889 
Q 1547 409 2034 409 
Q 2525 409 2770 889 
Q 3016 1369 3016 2328 
Q 3016 3291 2770 3770 
Q 2525 4250 2034 4250 
z
M 2034 4750 
Q 2819 4750 3233 4129 
Q 3647 3509 3647 2328 
Q 3647 1150 3233 529 
Q 2819 -91 2034 -91 
Q 1250 -91 836 529 
Q 422 1150 422 2328 
Q 422 3509 836 4129 
Q 1250 4750 2034 4750 
z
" transform="scale(0.015625)"/>
        <path id="DejaVuSans-2e" d="M 684 794 
L 1344 794 
L 1344 0 
L 684 0 
L 684 794 
z
" transform="scale(0.015625)"/>
        <path id="DejaVuSans-37" d="M 525 4666 
L 3525 4666 
L 3525 4397 
L 1831 0 
L 1172 0 
L 2766 4134 
L 525 4134 
L 525 4666 
z
" transform="scale(0.015625)"/>
       </defs>
       <use xlink:href="#DejaVuSans-30"/>
       <use xlink:href="#DejaVuSans-2e" x="63.623047"/>
       <use xlink:href="#DejaVuSans-37" x="95.410156"/>
      </g>
     </g>
    </g>
    <g id="xtick_2">
     <g id="line2d_3">
      <path d="M 113.803125 228.96 
L 113.803125 7.2 
" clip-path="url(#p0bb77fdfe6)" style="fill: none; stroke: #b0b0b0; stroke-opacity: 0.3; stroke-width: 0.8; stroke-linecap: square"/>
     </g>
     <g id="line2d_4">
      <g>
       <use xlink:href="#mb85b55b5bc" x="113.803125" y="228.96" style="stroke: #000000; stroke-width: 0.8"/>
      </g>
     </g>
     <g id="text_2">
      <!-- 0.8 -->
      <g transform="translate(105.851563 243.558437)scale(0.1 -0.1)">
       <defs>
        <path id="DejaVuSans-38" d="M 2034 2216 
Q 1584 2216 1326 1975 
Q 1069 1734 1069 1313 
Q 1069 891 1326 650 
Q 1584 409 2034 409 
Q 2484 409 2743 651 
Q 3003 894 3003 1313 
Q 3003 1734 2745 1975 
Q 2488 2216 2034 2216 
z
M 1403 2484 
Q 997 2584 770 2862 
Q 544 3141 544 3541 
Q 544 4100 942 4425 
Q 1341 4750 2034 4750 
Q 2731 4750 3128 4425 
Q 3525 4100 3525 3541 
Q 3525 3141 3298 2862 
Q 3072 2584 2669 2484 
Q 3125 2378 3379 2068 
Q 3634 1759 3634 1313 
Q 3634 634 3220 271 
Q 2806 -91 2034 -91 
Q 1263 -91 848 271 
Q 434 634 434 1313 
Q 434 1759 690 2068 
Q 947 2378 1403 2484 
z
M 1172 3481 
Q 1172 3119 1398 2916 
Q 1625 2713 2034 2713 
Q 2441 2713 2670 2916 
Q 2900 3119 2900 3481 
Q 2900 3844 2670 4047 
Q 2441 4250 2034 4250 
Q 1625 4250 1398 4047 
Q 1172 3844 1172 3481 
z
" transform="scale(0.015625)"/>
       </defs>
       <use xlink:href="#DejaVuSans-30"/>
       <use xlink:href="#DejaVuSans-2e" x="63.623047"/>
       <use xlink:href="#DejaVuSans-38" x="95.410156"/>
      </g>
     </g>
    </g>
    <g id="xtick_3">
     <g id="line2d_5">
      <path d="M 169.603125 228.96 
L 169.603125 7.2 
" clip-path="url(#p0bb77fdfe6)" style="fill: none; stroke: #b0b0b0; stroke-opacity: 0.3; stroke-width: 0.8; stroke-linecap: square"/>
     </g>
     <g id="line2d_6">
      <g>
       <use xlink:href="#mb85b55b5bc" x="169.603125" y="228.96" style="stroke: #000000; stroke-width: 0.8"/>
      </g>
     </g>
     <g id="text_3">
      <!-- 0.9 -->
      <g transform="translate(161.651562 243.558437)scale(0.1 -0.1)">
       <defs>
        <path id="DejaVuSans-39" d="M 703 97 
L 703 672 
Q 941 559 1184 500 
Q 1428 441 1663 441 
Q 2288 441 2617 861 
Q 2947 1281 2994 2138 
Q 2813 1869 2534 1725 
Q 2256 1581 1919 1581 
Q 1219 1581 811 2004 
Q 403 2428 403 3163 
Q 403 3881 828 4315 
Q 1253 4750 1959 4750 
Q 2769 4750 3195 4129 
Q 3622 3509 3622 2328 
Q 3622 1225 3098 567 
Q 2575 -91 1691 -91 
Q 1453 -91 1209 -44 
Q 966 3 703 97 
z
M 1959 2075 
Q 2384 2075 2632 2365 
Q 2881 2656 2881 3163 
Q 2881 3666 2632 3958 
Q 2384 4250 1959 4250 
Q 1534 4250 1286 3958 
Q 1038 3666 1038 3163 
Q 1038 2656 1286 2365 
Q 1534 2075 1959 2075 
z
" transform="scale(0.015625)"/>
       </defs>
       <use xlink:href="#DejaVuSans-30"/>
       <use xlink:href="#DejaVuSans-2e" x="63.623047"/>
       <use xlink:href="#DejaVuSans-39" x="95.410156"/>
      </g>
     </g>
    </g>
    <g id="xtick_4">
     <g id="line2d_7">
      <path d="M 225.403125 228.96 
L 225.403125 7.2 
" clip-path="url(#p0bb77fdfe6)" style="fill: none; stroke: #b0b0b0; stroke-opacity: 0.3; stroke-width: 0.8; stroke-linecap: square"/>
     </g>
     <g id="line2d_8">
      <g>
       <use xlink:href="#mb85b55b5bc" x="225.403125" y="228.96" style="stroke: #000000; stroke-width: 0.8"/>
      </g>
     </g>
     <g id="text_4">
      <!-- 1.0 -->
      <g transform="translate(217.451562 243.558437)scale(0.1 -0.1)">
       <defs>
        <path id="DejaVuSans-31" d="M 794 531 
L 1825 531 
L 1825 4091 
L 703 3866 
L 703 4441 
L 1819 4666 
L 2450 4666 
L 2450 531 
L 3481 531 
L 3481 0 
L 794 0 
L 794 531 
z
" transform="scale(0.015625)"/>
       </defs>
       <use xlink:href="#DejaVuSans-31"/>
       <use xlink:href="#DejaVuSans-2e" x="63.623047"/>
       <use xlink:href="#DejaVuSans-30" x="95.410156"/>
      </g>
     </g>
    </g>
    <g id="xtick_5">
     <g id="line2d_9">
      <path d="M 85.903125 228.96 
L 85.903125 7.2 
" clip-path="url(#p0bb77fdfe6)" style="fill: none; stroke: #b0b0b0; stroke-opacity: 0.3; stroke-width: 0.8; stroke-linecap: square"/>
     </g>
     <g id="line2d_10">
      <defs>
       <path id="m3d09e25bb5" d="M 0 0 
L 0 2 
" style="stroke: #000000; stroke-width: 0.6"/>
      </defs>
      <g>
       <use xlink:href="#m3d09e25bb5" x="85.903125" y="228.96" style="stroke: #000000; stroke-width: 0.6"/>
      </g>
     </g>
    </g>
    <g id="xtick_6">
     <g id="line2d_11">
      <path d="M 141.703125 228.96 
L 141.703125 7.2 
" clip-path="url(#p0bb77fdfe6)" style="fill: none; stroke: #b0b0b0; stroke-opacity: 0.3; stroke-width: 0.8; stroke-linecap: square"/>
     </g>
     <g id="line2d_12">
      <g>
       <use xlink:href="#m3d09e25bb5" x="141.703125" y="228.96" style="stroke: #000000; stroke-width: 0.6"/>
      </g>
     </g>
    </g>
    <g id="xtick_7">
     <g id="line2d_13">
      <path d="M 197.503125 228.96 
L 197.503125 7.2 
" clip-path="url(#p0bb77fdfe6)" style="fill: none; stroke: #b0b0b0; stroke-opacity: 0.3; stroke-width: 0.8; stroke-linecap: square"/>
     </g>
     <g id="line2d_14">
      <g>
       <use xlink:href="#m3d09e25bb5" x="197.503125" y="228.96" style="stroke: #000000; stroke-width: 0.6"/>
      </g>
     </g>
    </g>
   </g>
   <g id="matplotlib.axis_2">
    <g id="ytick_1">
     <g id="line2d_15">
      <path d="M 30.103125 201.24 
L 253.303125 201.24 
" clip-path="url(#p0bb77fdfe6)" style="fill: none; stroke: #b0b0b0; stroke-opacity: 0.3; stroke-width: 0.8; stroke-linecap: square"/>
     </g>
     <g id="line2d_16">
      <defs>
       <path id="maf2be4c292" d="M 0 0 
L -3.5 0 
" style="stroke: #000000; stroke-width: 0.8"/>
      </defs>
      <g>
       <use xlink:href="#maf2be4c292" x="30.103125" y="201.24" style="stroke: #000000; stroke-width: 0.8"/>
      </g>
     </g>
     <g id="text_5">
      <!-- 0.7 -->
      <g transform="translate(7.2 205.039219)scale(0.1 -0.1)">
       <use xlink:href="#DejaVuSans-30"/>
       <use xlink:href="#DejaVuSans-2e" x="63.623047"/>
       <use xlink:href="#DejaVuSans-37" x="95.410156"/>
      </g>
     </g>
    </g>
    <g id="ytick_2">
     <g id="line2d_17">
      <path d="M 30.103125 145.8 
L 253.303125 145.8 
" clip-path="url(#p0bb77fdfe6)" style="fill: none; stroke: #b0b0b0; stroke-opacity: 0.3; stroke-width: 0.8; stroke-linecap: square"/>
     </g>
     <g id="line2d_18">
      <g>
       <use xlink:href="#maf2be4c292" x="30.103125" y="145.8" style="stroke: #000000; stroke-width: 0.8"/>
      </g>
     </g>
     <g id="text_6">
      <!-- 0.8 -->
      <g transform="translate(7.2 149.599219)scale(0.1 -0.1)">
       <use xlink:href="#DejaVuSans-30"/>
       <use xlink:href="#DejaVuSans-2e" x="63.623047"/>
       <use xlink:href="#DejaVuSans-38" x="95.410156"/>
      </g>
     </g>
    </g>
    <g id="ytick_3">
     <g id="line2d_19">
      <path d="M 30.103125 90.36 
L 253.303125 90.36 
" clip-path="url(#p0bb77fdfe6)" style="fill: none; stroke: #b0b0b0; stroke-opacity: 0.3; stroke-width: 0.8; stroke-linecap: square"/>
     </g>
     <g id="line2d_20">
      <g>
       <use xlink:href="#maf2be4c292" x="30.103125" y="90.36" style="stroke: #000000; stroke-width: 0.8"/>
      </g>
     </g>
     <g id="text_7">
      <!-- 0.9 -->
      <g transform="translate(7.2 94.159219)scale(0.1 -0.1)">
       <use xlink:href="#DejaVuSans-30"/>
       <use xlink:href="#DejaVuSans-2e" x="63.623047"/>
       <use xlink:href="#DejaVuSans-39" x="95.410156"/>
      </g>
     </g>
    </g>
    <g id="ytick_4">
     <g id="line2d_21">
      <path d="M 30.103125 34.92 
L 253.303125 34.92 
" clip-path="url(#p0bb77fdfe6)" style="fill: none; stroke: #b0b0b0; stroke-opacity: 0.3; stroke-width: 0.8; stroke-linecap: square"/>
     </g>
     <g id="line2d_22">
      <g>
       <use xlink:href="#maf2be4c292" x="30.103125" y="34.92" style="stroke: #000000; stroke-width: 0.8"/>
      </g>
     </g>
     <g id="text_8">
      <!-- 1.0 -->
      <g transform="translate(7.2 38.719219)scale(0.1 -0.1)">
       <use xlink:href="#DejaVuSans-31"/>
       <use xlink:href="#DejaVuSans-2e" x="63.623047"/>
       <use xlink:href="#DejaVuSans-30" x="95.410156"/>
      </g>
     </g>
    </g>
    <g id="ytick_5">
     <g id="line2d_23">
      <path d="M 30.103125 173.52 
L 253.303125 173.52 
" clip-path="url(#p0bb77fdfe6)" style="fill: none; stroke: #b0b0b0; stroke-opacity: 0.3; stroke-width: 0.8; stroke-linecap: square"/>
     </g>
     <g id="line2d_24">
      <defs>
       <path id="mc9dc15f82e" d="M 0 0 
L -2 0 
" style="stroke: #000000; stroke-width: 0.6"/>
      </defs>
      <g>
       <use xlink:href="#mc9dc15f82e" x="30.103125" y="173.52" style="stroke: #000000; stroke-width: 0.6"/>
      </g>
     </g>
    </g>
    <g id="ytick_6">
     <g id="line2d_25">
      <path d="M 30.103125 118.08 
L 253.303125 118.08 
" clip-path="url(#p0bb77fdfe6)" style="fill: none; stroke: #b0b0b0; stroke-opacity: 0.3; stroke-width: 0.8; stroke-linecap: square"/>
     </g>
     <g id="line2d_26">
      <g>
       <use xlink:href="#mc9dc15f82e" x="30.103125" y="118.08" style="stroke: #000000; stroke-width: 0.6"/>
      </g>
     </g>
    </g>
    <g id="ytick_7">
     <g id="line2d_27">
      <path d="M 30.103125 62.64 
L 253.303125 62.64 
" clip-path="url(#p0bb77fdfe6)" style="fill: none; stroke: #b0b0b0; stroke-opacity: 0.3; stroke-width: 0.8; stroke-linecap: square"/>
     </g>
     <g id="line2d_28">
      <g>
       <use xlink:href="#mc9dc15f82e" x="30.103125" y="62.64" style="stroke: #000000; stroke-width: 0.6"/>
      </g>
     </g>
    </g>
   </g>
   <g id="line2d_29">
    <path d="M 30.103125 228.96 
L 253.303125 7.2 
" clip-path="url(#p0bb77fdfe6)" style="fill: none; stroke-dasharray: 3.7,1.6; stroke-dashoffset: 0; stroke: #000000"/>
   </g>
   <g id="patch_3">
    <path d="M 30.103125 228.96 
L 30.103125 7.2 
" style="fill: none; stroke: #000000; stroke-width: 0.8; stroke-linejoin: miter; stroke-linecap: square"/>
   </g>
   <g id="patch_4">
    <path d="M 253.303125 228.96 
L 253.303125 7.2 
" style="fill: none; stroke: #000000; stroke-width: 0.8; stroke-linejoin: miter; stroke-linecap: square"/>
   </g>
   <g id="patch_5">
    <path d="M 30.103125 228.96 
L 253.303125 228.96 
" style="fill: none; stroke: #000000; stroke-width: 0.8; stroke-linejoin: miter; stroke-linecap: square"/>
   </g>
   <g id="patch_6">
    <path d="M 30.103125 7.2 
L 253.303125 7.2 
" style="fill: none; stroke: #000000; stroke-width: 0.8; stroke-linejoin: miter; stroke-linecap: square"/>
   </g>
  </g>
 </g>
 <defs>
  <clipPath id="p0bb77fdfe6">
   <rect x="30.103125" y="7.2" width="223.2" height="221.76"/>
  </clipPath>
 </defs>
</svg>
