<?xml version="1.0" encoding="utf-8" standalone="no"?>
<!DOCTYPE svg PUBLIC "-//W3C//DTD SVG 1.1//EN"
  "http://www.w3.org/Graphics/SVG/1.1/DTD/svg11.dtd">
<svg xmlns:xlink="http://www.w3.org/1999/xlink" width="316.303125pt" height="308.278125pt" viewBox="0 0 316.303125 308.278125" xmlns="http://www.w3.org/2000/svg" version="1.1">
 <metadata>
  <rdf:RDF xmlns:dc="http://purl.org/dc/elements/1.1/" xmlns:cc="http://creativecommons.org/ns#" xmlns:rdf="http://www.w3.org/1999/02/22-rdf-syntax-ns#">
   <cc:Work>
    <dc:type rdf:resource="http://purl.org/dc/dcmitype/StillImage"/>
    <dc:date>2022-09-16T19:54:56.305797</dc:date>
    <dc:format>image/svg+xml</dc:format>
    <dc:creator>
     <cc:Agent>
      <dc:title>Matplotlib v3.5.2, https://matplotlib.org/</dc:title>
     </cc:Agent>
    </dc:creator>
   </cc:Work>
  </rdf:RDF>
 </metadata>
 <defs>
  <style type="text/css">*{stroke-linejoin: round; stroke-linecap: butt}</style>
 </defs>
 <g id="figure_1">
  <g id="patch_1">
   <path d="M 0 308.278125 
L 316.303125 308.278125 
L 316.303125 0 
L 0 0 
z
" style="fill: #ffffff"/>
  </g>
  <g id="axes_1">
   <g id="patch_2">
    <path d="M 30.103125 284.4 
L 309.103125 284.4 
L 309.103125 7.2 
L 30.103125 7.2 
z
" style="fill: #ffffff"/>
   </g>
   <g id="PathCollection_1">
    <path d="M -333.294375 189.50132 
C -332.731794 189.50132 -332.19218 189.277805 -331.794375 188.88 
C -331.39657 188.482195 -331.173055 187.942581 -331.173055 187.38 
C -331.173055 186.817419 -331.39657 186.277805 -331.794375 185.88 
C -332.19218 185.482195 -332.731794 185.25868 -333.294375 185.25868 
C -333.856956 185.25868 -334.39657 185.482195 -334.794375 185.88 
C -335.19218 186.277805 -335.415695 186.817419 -335.415695 187.38 
C -335.415695 187.942581 -335.19218 188.482195 -334.794375 188.88 
C -334.39657 189.277805 -333.856956 189.50132 -333.294375 189.50132 
z
" clip-path="url(#p5a3eecf9f9)" style="fill: #db5f57; stroke: #ffffff; stroke-width: 0.339411"/>
    <path d="M -169.381875 165.93932 
C -168.819294 165.93932 -168.27968 165.715805 -167.881875 165.318 
C -167.48407 164.920195 -167.260555 164.380581 -167.260555 163.818 
C -167.260555 163.255419 -167.48407 162.715805 -167.881875 162.318 
C -168.27968 161.920195 -168.819294 161.69668 -169.381875 161.69668 
C -169.944456 161.69668 -170.48407 161.920195 -170.881875 162.318 
C -171.27968 162.715805 -171.503195 163.255419 -171.503195 163.818 
C -171.503195 164.380581 -171.27968 164.920195 -170.881875 165.318 
C -170.48407 165.715805 -169.944456 165.93932 -169.381875 165.93932 
z
" clip-path="url(#p5a3eecf9f9)" style="fill: #db9457; stroke: #ffffff; stroke-width: 0.339411"/>
    <path d="M -414.204375 109.11332 
C -413.641794 109.11332 -413.10218 108.889805 -412.704375 108.492 
C -412.30657 108.094195 -412.083055 107.554581 -412.083055 106.992 
C -412.083055 106.429419 -412.30657 105.889805 -412.704375 105.492 
C -413.10218 105.094195 -413.641794 104.87068 -414.204375 104.87068 
C -414.766956 104.87068 -415.30657 105.094195 -415.704375 105.492 
C -416.10218 105.889805 -416.325695 106.429419 -416.325695 106.992 
C -416.325695 107.554581 -416.10218 108.094195 -415.704375 108.492 
C -415.30657 108.889805 -414.766956 109.11332 -414.204375 109.11332 
z
" clip-path="url(#p5a3eecf9f9)" style="fill: #dbc957; stroke: #ffffff; stroke-width: 0.339411"/>
    <path d="M -73.824375 120.89432 
C -73.261794 120.89432 -72.72218 120.670805 -72.324375 120.273 
C -71.92657 119.875195 -71.703055 119.335581 -71.703055 118.773 
C -71.703055 118.210419 -71.92657 117.670805 -72.324375 117.273 
C -72.72218 116.875195 -73.261794 116.65168 -73.824375 116.65168 
C -74.386956 116.65168 -74.92657 116.875195 -75.324375 117.273 
C -75.72218 117.670805 -75.945695 118.210419 -75.945695 118.773 
C -75.945695 119.335581 -75.72218 119.875195 -75.324375 120.273 
C -74.92657 120.670805 -74.386956 120.89432 -73.824375 120.89432 
z
" clip-path="url(#p5a3eecf9f9)" style="fill: #b9db57; stroke: #ffffff; stroke-width: 0.339411"/>
    <path d="M 121.475625 153.46532 
C 122.038206 153.46532 122.57782 153.241805 122.975625 152.844 
C 123.37343 152.446195 123.596945 151.906581 123.596945 151.344 
C 123.596945 150.781419 123.37343 150.241805 122.975625 149.844 
C 122.57782 149.446195 122.038206 149.22268 121.475625 149.22268 
C 120.913044 149.22268 120.37343 149.446195 119.975625 149.844 
C 119.57782 150.241805 119.354305 150.781419 119.354305 151.344 
C 119.354305 151.906581 119.57782 152.446195 119.975625 152.844 
C 120.37343 153.241805 120.913044 153.46532 121.475625 153.46532 
z
" clip-path="url(#p5a3eecf9f9)" style="fill: #84db57; stroke: #ffffff; stroke-width: 0.339411"/>
    <path d="M 128.450625 170.79032 
C 129.013206 170.79032 129.55282 170.566805 129.950625 170.169 
C 130.34843 169.771195 130.571945 169.231581 130.571945 168.669 
C 130.571945 168.106419 130.34843 167.566805 129.950625 167.169 
C 129.55282 166.771195 129.013206 166.54768 128.450625 166.54768 
C 127.888044 166.54768 127.34843 166.771195 126.950625 167.169 
C 126.55282 167.566805 126.329305 168.106419 126.329305 168.669 
C 126.329305 169.231581 126.55282 169.771195 126.950625 170.169 
C 127.34843 170.566805 127.888044 170.79032 128.450625 170.79032 
z
" clip-path="url(#p5a3eecf9f9)" style="fill: #57db5f; stroke: #ffffff; stroke-width: 0.339411"/>
    <path d="M -292.839375 204.74732 
C -292.276794 204.74732 -291.73718 204.523805 -291.339375 204.126 
C -290.94157 203.728195 -290.718055 203.188581 -290.718055 202.626 
C -290.718055 202.063419 -290.94157 201.523805 -291.339375 201.126 
C -291.73718 200.728195 -292.276794 200.50468 -292.839375 200.50468 
C -293.401956 200.50468 -293.94157 200.728195 -294.339375 201.126 
C -294.73718 201.523805 -294.960695 202.063419 -294.960695 202.626 
C -294.960695 203.188581 -294.73718 203.728195 -294.339375 204.126 
C -293.94157 204.523805 -293.401956 204.74732 -292.839375 204.74732 
z
" clip-path="url(#p5a3eecf9f9)" style="fill: #57db94; stroke: #ffffff; stroke-width: 0.339411"/>
    <path d="M 38.473125 111.19232 
C 39.035706 111.19232 39.57532 110.968805 39.973125 110.571 
C 40.37093 110.173195 40.594445 109.633581 40.594445 109.071 
C 40.594445 108.508419 40.37093 107.968805 39.973125 107.571 
C 39.57532 107.173195 39.035706 106.94968 38.473125 106.94968 
C 37.910544 106.94968 37.37093 107.173195 36.973125 107.571 
C 36.57532 107.968805 36.351805 108.508419 36.351805 109.071 
C 36.351805 109.633581 36.57532 110.173195 36.973125 110.571 
C 37.37093 110.968805 37.910544 111.19232 38.473125 111.19232 
z
" clip-path="url(#p5a3eecf9f9)" style="fill: #57dbc9; stroke: #ffffff; stroke-width: 0.339411"/>
    <path d="M -226.576875 239.39732 
C -226.014294 239.39732 -225.47468 239.173805 -225.076875 238.776 
C -224.67907 238.378195 -224.455555 237.838581 -224.455555 237.276 
C -224.455555 236.713419 -224.67907 236.173805 -225.076875 235.776 
C -225.47468 235.378195 -226.014294 235.15468 -226.576875 235.15468 
C -227.139456 235.15468 -227.67907 235.378195 -228.076875 235.776 
C -228.47468 236.173805 -228.698195 236.713419 -228.698195 237.276 
C -228.698195 237.838581 -228.47468 238.378195 -228.076875 238.776 
C -227.67907 239.173805 -227.139456 239.39732 -226.576875 239.39732 
z
" clip-path="url(#p5a3eecf9f9)" style="fill: #57b9db; stroke: #ffffff; stroke-width: 0.339411"/>
    <path d="M -11.746875 107.03432 
C -11.184294 107.03432 -10.64468 106.810805 -10.246875 106.413 
C -9.84907 106.015195 -9.625555 105.475581 -9.625555 104.913 
C -9.625555 104.350419 -9.84907 103.810805 -10.246875 103.413 
C -10.64468 103.015195 -11.184294 102.79168 -11.746875 102.79168 
C -12.309456 102.79168 -12.84907 103.015195 -13.246875 103.413 
C -13.64468 103.810805 -13.868195 104.350419 -13.868195 104.913 
C -13.868195 105.475581 -13.64468 106.015195 -13.246875 106.413 
C -12.84907 106.810805 -12.309456 107.03432 -11.746875 107.03432 
z
" clip-path="url(#p5a3eecf9f9)" style="fill: #5784db; stroke: #ffffff; stroke-width: 0.339411"/>
    <path d="M 220.520625 56.44532 
C 221.083206 56.44532 221.62282 56.221805 222.020625 55.824 
C 222.41843 55.426195 222.641945 54.886581 222.641945 54.324 
C 222.641945 53.761419 222.41843 53.221805 222.020625 52.824 
C 221.62282 52.426195 221.083206 52.20268 220.520625 52.20268 
C 219.958044 52.20268 219.41843 52.426195 219.020625 52.824 
C 218.62282 53.221805 218.399305 53.761419 218.399305 54.324 
C 218.399305 54.886581 218.62282 55.426195 219.020625 55.824 
C 219.41843 56.221805 219.958044 56.44532 220.520625 56.44532 
z
" clip-path="url(#p5a3eecf9f9)" style="fill: #5f57db; stroke: #ffffff; stroke-width: 0.339411"/>
    <path d="M 28.010625 66.84032 
C 28.573206 66.84032 29.11282 66.616805 29.510625 66.219 
C 29.90843 65.821195 30.131945 65.281581 30.131945 64.719 
C 30.131945 64.156419 29.90843 63.616805 29.510625 63.219 
C 29.11282 62.821195 28.573206 62.59768 28.010625 62.59768 
C 27.448044 62.59768 26.90843 62.821195 26.510625 63.219 
C 26.11282 63.616805 25.889305 64.156419 25.889305 64.719 
C 25.889305 65.281581 26.11282 65.821195 26.510625 66.219 
C 26.90843 66.616805 27.448044 66.84032 28.010625 66.84032 
z
" clip-path="url(#p5a3eecf9f9)" style="fill: #9457db; stroke: #ffffff; stroke-width: 0.339411"/>
    <path d="M -105.909375 64.06832 
C -105.346794 64.06832 -104.80718 63.844805 -104.409375 63.447 
C -104.01157 63.049195 -103.788055 62.509581 -103.788055 61.947 
C -103.788055 61.384419 -104.01157 60.844805 -104.409375 60.447 
C -104.80718 60.049195 -105.346794 59.82568 -105.909375 59.82568 
C -106.471956 59.82568 -107.01157 60.049195 -107.409375 60.447 
C -107.80718 60.844805 -108.030695 61.384419 -108.030695 61.947 
C -108.030695 62.509581 -107.80718 63.049195 -107.409375 63.447 
C -107.01157 63.844805 -106.471956 64.06832 -105.909375 64.06832 
z
" clip-path="url(#p5a3eecf9f9)" style="fill: #c957db; stroke: #ffffff; stroke-width: 0.339411"/>
    <path d="M 18.245625 54.36632 
C 18.808206 54.36632 19.34782 54.142805 19.745625 53.745 
C 20.14343 53.347195 20.366945 52.807581 20.366945 52.245 
C 20.366945 51.682419 20.14343 51.142805 19.745625 50.745 
C 19.34782 50.347195 18.808206 50.12368 18.245625 50.12368 
C 17.683044 50.12368 17.14343 50.347195 16.745625 50.745 
C 16.34782 51.142805 16.124305 51.682419 16.124305 52.245 
C 16.124305 52.807581 16.34782 53.347195 16.745625 53.745 
C 17.14343 54.142805 17.683044 54.36632 18.245625 54.36632 
z
" clip-path="url(#p5a3eecf9f9)" style="fill: #db57b9; stroke: #ffffff; stroke-width: 0.339411"/>
    <path d="M -121.951875 51.59432 
C -121.389294 51.59432 -120.84968 51.370805 -120.451875 50.973 
C -120.05407 50.575195 -119.830555 50.035581 -119.830555 49.473 
C -119.830555 48.910419 -120.05407 48.370805 -120.451875 47.973 
C -120.84968 47.575195 -121.389294 47.35168 -121.951875 47.35168 
C -122.514456 47.35168 -123.05407 47.575195 -123.451875 47.973 
C -123.84968 48.370805 -124.073195 48.910419 -124.073195 49.473 
C -124.073195 50.035581 -123.84968 50.575195 -123.451875 50.973 
C -123.05407 51.370805 -122.514456 51.59432 -121.951875 51.59432 
z
" clip-path="url(#p5a3eecf9f9)" style="fill: #db5784; stroke: #ffffff; stroke-width: 0.339411"/>
   </g>
   <g id="matplotlib.axis_1">
    <g id="xtick_1">
     <g id="line2d_1">
      <path d="M 64.978125 284.4 
L 64.978125 7.2 
" clip-path="url(#p5a3eecf9f9)" style="fill: none; stroke: #b0b0b0; stroke-opacity: 0.3; stroke-width: 0.8; stroke-linecap: square"/>
     </g>
     <g id="line2d_2">
      <defs>
       <path id="mc196307dcf" d="M 0 0 
L 0 3.5 
" style="stroke: #000000; stroke-width: 0.8"/>
      </defs>
      <g>
       <use xlink:href="#mc196307dcf" x="64.978125" y="284.4" style="stroke: #000000; stroke-width: 0.8"/>
      </g>
     </g>
     <g id="text_1">
      <!-- 0.7 -->
      <g transform="translate(57.026563 298.998438)scale(0.1 -0.1)">
       <defs>
        <path id="DejaVuSans-30" d="M 2034 4250 
Q 1547 4250 1301 3770 
Q 1056 3291 1056 2328 
Q 1056 1369 1301 889 
Q 1547 409 2034 409 
Q 2525 409 2770 889 
Q 3016 1369 3016 2328 
Q 3016 3291 2770 3770 
Q 2525 4250 2034 4250 
z
M 2034 4750 
Q 2819 4750 3233 4129 
Q 3647 3509 3647 2328 
Q 3647 1150 3233 529 
Q 2819 -91 2034 -91 
Q 1250 -91 836 529 
Q 422 1150 422 2328 
Q 422 3509 836 4129 
Q 1250 4750 2034 4750 
z
" transform="scale(0.015625)"/>
        <path id="DejaVuSans-2e" d="M 684 794 
L 1344 794 
L 1344 0 
L 684 0 
L 684 794 
z
" transform="scale(0.015625)"/>
        <path id="DejaVuSans-37" d="M 525 4666 
L 3525 4666 
L 3525 4397 
L 1831 0 
L 1172 0 
L 2766 4134 
L 525 4134 
L 525 4666 
z
" transform="scale(0.015625)"/>
       </defs>
       <use xlink:href="#DejaVuSans-30"/>
       <use xlink:href="#DejaVuSans-2e" x="63.623047"/>
       <use xlink:href="#DejaVuSans-37" x="95.410156"/>
      </g>
     </g>
    </g>
    <g id="xtick_2">
     <g id="line2d_3">
      <path d="M 134.728125 284.4 
L 134.728125 7.2 
" clip-path="url(#p5a3eecf9f9)" style="fill: none; stroke: #b0b0b0; stroke-opacity: 0.3; stroke-width: 0.8; stroke-linecap: square"/>
     </g>
     <g id="line2d_4">
      <g>
       <use xlink:href="#mc196307dcf" x="134.728125" y="284.4" style="stroke: #000000; stroke-width: 0.8"/>
      </g>
     </g>
     <g id="text_2">
      <!-- 0.8 -->
      <g transform="translate(126.776563 298.998438)scale(0.1 -0.1)">
       <defs>
        <path id="DejaVuSans-38" d="M 2034 2216 
Q 1584 2216 1326 1975 
Q 1069 1734 1069 1313 
Q 1069 891 1326 650 
Q 1584 409 2034 409 
Q 2484 409 2743 651 
Q 3003 894 3003 1313 
Q 3003 1734 2745 1975 
Q 2488 2216 2034 2216 
z
M 1403 2484 
Q 997 2584 770 2862 
Q 544 3141 544 3541 
Q 544 4100 942 4425 
Q 1341 4750 2034 4750 
Q 2731 4750 3128 4425 
Q 3525 4100 3525 3541 
Q 3525 3141 3298 2862 
Q 3072 2584 2669 2484 
Q 3125 2378 3379 2068 
Q 3634 1759 3634 1313 
Q 3634 634 3220 271 
Q 2806 -91 2034 -91 
Q 1263 -91 848 271 
Q 434 634 434 1313 
Q 434 1759 690 2068 
Q 947 2378 1403 2484 
z
M 1172 3481 
Q 1172 3119 1398 2916 
Q 1625 2713 2034 2713 
Q 2441 2713 2670 2916 
Q 2900 3119 2900 3481 
Q 2900 3844 2670 4047 
Q 2441 4250 2034 4250 
Q 1625 4250 1398 4047 
Q 1172 3844 1172 3481 
z
" transform="scale(0.015625)"/>
       </defs>
       <use xlink:href="#DejaVuSans-30"/>
       <use xlink:href="#DejaVuSans-2e" x="63.623047"/>
       <use xlink:href="#DejaVuSans-38" x="95.410156"/>
      </g>
     </g>
    </g>
    <g id="xtick_3">
     <g id="line2d_5">
      <path d="M 204.478125 284.4 
L 204.478125 7.2 
" clip-path="url(#p5a3eecf9f9)" style="fill: none; stroke: #b0b0b0; stroke-opacity: 0.3; stroke-width: 0.8; stroke-linecap: square"/>
     </g>
     <g id="line2d_6">
      <g>
       <use xlink:href="#mc196307dcf" x="204.478125" y="284.4" style="stroke: #000000; stroke-width: 0.8"/>
      </g>
     </g>
     <g id="text_3">
      <!-- 0.9 -->
      <g transform="translate(196.526562 298.998438)scale(0.1 -0.1)">
       <defs>
        <path id="DejaVuSans-39" d="M 703 97 
L 703 672 
Q 941 559 1184 500 
Q 1428 441 1663 441 
Q 2288 441 2617 861 
Q 2947 1281 2994 2138 
Q 2813 1869 2534 1725 
Q 2256 1581 1919 1581 
Q 1219 1581 811 2004 
Q 403 2428 403 3163 
Q 403 3881 828 4315 
Q 1253 4750 1959 4750 
Q 2769 4750 3195 4129 
Q 3622 3509 3622 2328 
Q 3622 1225 3098 567 
Q 2575 -91 1691 -91 
Q 1453 -91 1209 -44 
Q 966 3 703 97 
z
M 1959 2075 
Q 2384 2075 2632 2365 
Q 2881 2656 2881 3163 
Q 2881 3666 2632 3958 
Q 2384 4250 1959 4250 
Q 1534 4250 1286 3958 
Q 1038 3666 1038 3163 
Q 1038 2656 1286 2365 
Q 1534 2075 1959 2075 
z
" transform="scale(0.015625)"/>
       </defs>
       <use xlink:href="#DejaVuSans-30"/>
       <use xlink:href="#DejaVuSans-2e" x="63.623047"/>
       <use xlink:href="#DejaVuSans-39" x="95.410156"/>
      </g>
     </g>
    </g>
    <g id="xtick_4">
     <g id="line2d_7">
      <path d="M 274.228125 284.4 
L 274.228125 7.2 
" clip-path="url(#p5a3eecf9f9)" style="fill: none; stroke: #b0b0b0; stroke-opacity: 0.3; stroke-width: 0.8; stroke-linecap: square"/>
     </g>
     <g id="line2d_8">
      <g>
       <use xlink:href="#mc196307dcf" x="274.228125" y="284.4" style="stroke: #000000; stroke-width: 0.8"/>
      </g>
     </g>
     <g id="text_4">
      <!-- 1.0 -->
      <g transform="translate(266.276562 298.998438)scale(0.1 -0.1)">
       <defs>
        <path id="DejaVuSans-31" d="M 794 531 
L 1825 531 
L 1825 4091 
L 703 3866 
L 703 4441 
L 1819 4666 
L 2450 4666 
L 2450 531 
L 3481 531 
L 3481 0 
L 794 0 
L 794 531 
z
" transform="scale(0.015625)"/>
       </defs>
       <use xlink:href="#DejaVuSans-31"/>
       <use xlink:href="#DejaVuSans-2e" x="63.623047"/>
       <use xlink:href="#DejaVuSans-30" x="95.410156"/>
      </g>
     </g>
    </g>
    <g id="xtick_5">
     <g id="line2d_9">
      <path d="M 99.853125 284.4 
L 99.853125 7.2 
" clip-path="url(#p5a3eecf9f9)" style="fill: none; stroke: #b0b0b0; stroke-opacity: 0.3; stroke-width: 0.8; stroke-linecap: square"/>
     </g>
     <g id="line2d_10">
      <defs>
       <path id="me2f8dde3b8" d="M 0 0 
L 0 2 
" style="stroke: #000000; stroke-width: 0.6"/>
      </defs>
      <g>
       <use xlink:href="#me2f8dde3b8" x="99.853125" y="284.4" style="stroke: #000000; stroke-width: 0.6"/>
      </g>
     </g>
    </g>
    <g id="xtick_6">
     <g id="line2d_11">
      <path d="M 169.603125 284.4 
L 169.603125 7.2 
" clip-path="url(#p5a3eecf9f9)" style="fill: none; stroke: #b0b0b0; stroke-opacity: 0.3; stroke-width: 0.8; stroke-linecap: square"/>
     </g>
     <g id="line2d_12">
      <g>
       <use xlink:href="#me2f8dde3b8" x="169.603125" y="284.4" style="stroke: #000000; stroke-width: 0.6"/>
      </g>
     </g>
    </g>
    <g id="xtick_7">
     <g id="line2d_13">
      <path d="M 239.353125 284.4 
L 239.353125 7.2 
" clip-path="url(#p5a3eecf9f9)" style="fill: none; stroke: #b0b0b0; stroke-opacity: 0.3; stroke-width: 0.8; stroke-linecap: square"/>
     </g>
     <g id="line2d_14">
      <g>
       <use xlink:href="#me2f8dde3b8" x="239.353125" y="284.4" style="stroke: #000000; stroke-width: 0.6"/>
      </g>
     </g>
    </g>
   </g>
   <g id="matplotlib.axis_2">
    <g id="ytick_1">
     <g id="line2d_15">
      <path d="M 30.103125 249.75 
L 309.103125 249.75 
" clip-path="url(#p5a3eecf9f9)" style="fill: none; stroke: #b0b0b0; stroke-opacity: 0.3; stroke-width: 0.8; stroke-linecap: square"/>
     </g>
     <g id="line2d_16">
      <defs>
       <path id="mf52114649b" d="M 0 0 
L -3.5 0 
" style="stroke: #000000; stroke-width: 0.8"/>
      </defs>
      <g>
       <use xlink:href="#mf52114649b" x="30.103125" y="249.75" style="stroke: #000000; stroke-width: 0.8"/>
      </g>
     </g>
     <g id="text_5">
      <!-- 0.7 -->
      <g transform="translate(7.2 253.549219)scale(0.1 -0.1)">
       <use xlink:href="#DejaVuSans-30"/>
       <use xlink:href="#DejaVuSans-2e" x="63.623047"/>
       <use xlink:href="#DejaVuSans-37" x="95.410156"/>
      </g>
     </g>
    </g>
    <g id="ytick_2">
     <g id="line2d_17">
      <path d="M 30.103125 180.45 
L 309.103125 180.45 
" clip-path="url(#p5a3eecf9f9)" style="fill: none; stroke: #b0b0b0; stroke-opacity: 0.3; stroke-width: 0.8; stroke-linecap: square"/>
     </g>
     <g id="line2d_18">
      <g>
       <use xlink:href="#mf52114649b" x="30.103125" y="180.45" style="stroke: #000000; stroke-width: 0.8"/>
      </g>
     </g>
     <g id="text_6">
      <!-- 0.8 -->
      <g transform="translate(7.2 184.249219)scale(0.1 -0.1)">
       <use xlink:href="#DejaVuSans-30"/>
       <use xlink:href="#DejaVuSans-2e" x="63.623047"/>
       <use xlink:href="#DejaVuSans-38" x="95.410156"/>
      </g>
     </g>
    </g>
    <g id="ytick_3">
     <g id="line2d_19">
      <path d="M 30.103125 111.15 
L 309.103125 111.15 
" clip-path="url(#p5a3eecf9f9)" style="fill: none; stroke: #b0b0b0; stroke-opacity: 0.3; stroke-width: 0.8; stroke-linecap: square"/>
     </g>
     <g id="line2d_20">
      <g>
       <use xlink:href="#mf52114649b" x="30.103125" y="111.15" style="stroke: #000000; stroke-width: 0.8"/>
      </g>
     </g>
     <g id="text_7">
      <!-- 0.9 -->
      <g transform="translate(7.2 114.949219)scale(0.1 -0.1)">
       <use xlink:href="#DejaVuSans-30"/>
       <use xlink:href="#DejaVuSans-2e" x="63.623047"/>
       <use xlink:href="#DejaVuSans-39" x="95.410156"/>
      </g>
     </g>
    </g>
    <g id="ytick_4">
     <g id="line2d_21">
      <path d="M 30.103125 41.85 
L 309.103125 41.85 
" clip-path="url(#p5a3eecf9f9)" style="fill: none; stroke: #b0b0b0; stroke-opacity: 0.3; stroke-width: 0.8; stroke-linecap: square"/>
     </g>
     <g id="line2d_22">
      <g>
       <use xlink:href="#mf52114649b" x="30.103125" y="41.85" style="stroke: #000000; stroke-width: 0.8"/>
      </g>
     </g>
     <g id="text_8">
      <!-- 1.0 -->
      <g transform="translate(7.2 45.649219)scale(0.1 -0.1)">
       <use xlink:href="#DejaVuSans-31"/>
       <use xlink:href="#DejaVuSans-2e" x="63.623047"/>
       <use xlink:href="#DejaVuSans-30" x="95.410156"/>
      </g>
     </g>
    </g>
    <g id="ytick_5">
     <g id="line2d_23">
      <path d="M 30.103125 215.1 
L 309.103125 215.1 
" clip-path="url(#p5a3eecf9f9)" style="fill: none; stroke: #b0b0b0; stroke-opacity: 0.3; stroke-width: 0.8; stroke-linecap: square"/>
     </g>
     <g id="line2d_24">
      <defs>
       <path id="m6d5a34bc03" d="M 0 0 
L -2 0 
" style="stroke: #000000; stroke-width: 0.6"/>
      </defs>
      <g>
       <use xlink:href="#m6d5a34bc03" x="30.103125" y="215.1" style="stroke: #000000; stroke-width: 0.6"/>
      </g>
     </g>
    </g>
    <g id="ytick_6">
     <g id="line2d_25">
      <path d="M 30.103125 145.8 
L 309.103125 145.8 
" clip-path="url(#p5a3eecf9f9)" style="fill: none; stroke: #b0b0b0; stroke-opacity: 0.3; stroke-width: 0.8; stroke-linecap: square"/>
     </g>
     <g id="line2d_26">
      <g>
       <use xlink:href="#m6d5a34bc03" x="30.103125" y="145.8" style="stroke: #000000; stroke-width: 0.6"/>
      </g>
     </g>
    </g>
    <g id="ytick_7">
     <g id="line2d_27">
      <path d="M 30.103125 76.5 
L 309.103125 76.5 
" clip-path="url(#p5a3eecf9f9)" style="fill: none; stroke: #b0b0b0; stroke-opacity: 0.3; stroke-width: 0.8; stroke-linecap: square"/>
     </g>
     <g id="line2d_28">
      <g>
       <use xlink:href="#m6d5a34bc03" x="30.103125" y="76.5" style="stroke: #000000; stroke-width: 0.6"/>
      </g>
     </g>
    </g>
   </g>
   <g id="line2d_29">
    <path d="M 30.103125 284.4 
L 309.103125 7.2 
" clip-path="url(#p5a3eecf9f9)" style="fill: none; stroke-dasharray: 3.7,1.6; stroke-dashoffset: 0; stroke: #000000"/>
   </g>
   <g id="patch_3">
    <path d="M 30.103125 284.4 
L 30.103125 7.2 
" style="fill: none; stroke: #000000; stroke-width: 0.8; stroke-linejoin: miter; stroke-linecap: square"/>
   </g>
   <g id="patch_4">
    <path d="M 309.103125 284.4 
L 309.103125 7.2 
" style="fill: none; stroke: #000000; stroke-width: 0.8; stroke-linejoin: miter; stroke-linecap: square"/>
   </g>
   <g id="patch_5">
    <path d="M 30.103125 284.4 
L 309.103125 284.4 
" style="fill: none; stroke: #000000; stroke-width: 0.8; stroke-linejoin: miter; stroke-linecap: square"/>
   </g>
   <g id="patch_6">
    <path d="M 30.103125 7.2 
L 309.103125 7.2 
" style="fill: none; stroke: #000000; stroke-width: 0.8; stroke-linejoin: miter; stroke-linecap: square"/>
   </g>
  </g>
 </g>
 <defs>
  <clipPath id="p5a3eecf9f9">
   <rect x="30.103125" y="7.2" width="279" height="277.2"/>
  </clipPath>
 </defs>
</svg>
